<svg xmlns="http://www.w3.org/2000/svg" xmlns:xlink="http://www.w3.org/1999/xlink" fill="#000000" height="800px" width="800px" version="1.1" id="Layer_1" viewBox="0 0 512.001 512.001" xml:space="preserve">
<g>
	<g>
		<path d="M453.625,114.547c-6.441-6.554-16.978-6.646-23.535-0.206c-6.556,6.443-6.648,16.98-0.205,23.536    c31.489,32.045,48.831,75.395,48.831,122.067c0,40.371-13.103,77.293-40.058,112.877c-5.55,7.327-4.11,17.767,3.218,23.316    c3.006,2.277,6.535,3.377,10.037,3.377c5.033,0,10.006-2.274,13.279-6.594c31.499-41.583,46.81-85.081,46.81-132.977    C512,204.492,491.269,152.857,453.625,114.547z"/>
	</g>
</g>
<g>
	<g>
		<path d="M81.91,114.341c-6.556-6.442-17.093-6.347-23.535,0.206C20.731,152.856,0,204.492,0,259.944    c0,47.896,15.312,91.394,46.811,132.977c3.273,4.322,8.246,6.594,13.279,6.594c3.5,0,7.031-1.101,10.037-3.377    c7.327-5.551,8.767-15.989,3.216-23.316c-26.954-35.583-40.058-72.505-40.058-112.877c0-46.672,17.342-90.023,48.83-122.067    C88.558,131.321,88.466,120.784,81.91,114.341z"/>
	</g>
</g>
<g>
	<g>
		<path d="M99.856,259.944c0-28.649,10.511-55.227,29.599-74.842c6.41-6.587,6.267-17.124-0.321-23.534    c-6.588-6.409-17.124-6.265-23.534,0.321c-25.169,25.864-39.03,60.686-39.03,98.055c0,34.52,11.947,66.339,36.522,97.275    c3.285,4.137,8.14,6.292,13.042,6.292c3.627,0,7.281-1.18,10.341-3.613c7.197-5.717,8.397-16.187,2.679-23.383    C109.166,311.352,99.856,287.022,99.856,259.944z"/>
	</g>
</g>
<g>
	<g>
		<path d="M406.399,161.889c-6.411-6.588-16.947-6.73-23.534-0.321s-6.73,16.947-0.321,23.534    c19.087,19.615,29.599,46.194,29.599,74.842c0,27.078-9.31,51.408-29.3,76.572c-5.717,7.196-4.518,17.666,2.68,23.383    c3.061,2.431,6.714,3.613,10.341,3.613c4.901,0,9.756-2.156,13.042-6.292c24.576-30.936,36.522-62.755,36.522-97.275    C445.429,222.576,431.568,187.753,406.399,161.889z"/>
	</g>
</g>
<g>
	<g>
		<path d="M360.116,209.969c-12.78-14.062-30.455-21.806-49.772-21.806c-25.802,0-43.286,13.704-54.344,27.479    c-11.058-13.776-28.543-27.479-54.344-27.479c-19.317,0-36.991,7.744-49.769,21.806c-12.089,13.304-18.746,31.052-18.746,49.976    c0,44.517,38.711,76.96,92.288,121.864c6.389,5.354,12.993,10.89,19.804,16.669c3.106,2.636,6.938,3.953,10.769,3.953    s7.663-1.318,10.769-3.953c6.81-5.779,13.415-11.315,19.804-16.669c53.578-44.904,92.288-77.347,92.288-121.864    C378.862,241.021,372.205,223.273,360.116,209.969z M265.193,356.299c-3.016,2.526-6.079,5.095-9.192,7.711    c-3.114-2.616-6.177-5.185-9.192-7.711c-46.666-39.112-80.383-67.371-80.383-96.354c0-18.662,12.348-38.497,35.231-38.497    c26.741,0,38.092,31.328,38.607,32.794c2.31,6.717,8.616,11.269,15.724,11.269c7.133,0,13.458-4.506,15.748-11.26    c0.469-1.339,11.812-32.802,38.61-32.802c22.884,0,35.231,19.835,35.231,38.497C345.576,288.928,311.859,317.186,265.193,356.299z    "/>
	</g>
</g>
</svg>